<svg xmlns="http://www.w3.org/2000/svg" viewBox="0 0 24 24" fill="none" stroke="currentColor" stroke-width="1.5" stroke-linecap="round" stroke-linejoin="round">
  <path d="M7 13.8c-2.3 0-2.9-2.3-1.8-3.5-1.1-1.2-.3-3 1.2-3.1C6.3 5.1 8.2 4.2 9.7 5.1 10.3 3.8 13.7 3.8 14.3 5.1c1.5-.9 3.4 0 3.3 2.1 1.5.1 2.3 1.9 1.2 3.1 1.1 1.2.5 3.5-1.8 3.5-1.4 1-3.1 1-4.5.2-1.4.8-3.1.8-4.5-.2Z"/>
  <path d="M12 5.1v8.7"/>
  <path d="M9.3 9.2c.9.5 1.4 1.4 1.4 2.4M14.7 9.2c-.9.5-1.4 1.4-1.4 2.4"/>
  <path d="M10 14v2.5M14 14v2.5"/>
  <path d="M8.9 16.5h1.7M13.4 16.5h1.7"/>
</svg>
